<svg width="884" height="884" viewBox="0 0 884 884" fill="none" xmlns="http://www.w3.org/2000/svg">
<path d="M884 676.083H0V676.525H884V676.083Z" fill="#EBEBEB"/>
<path d="M419.016 597.23H77.6329C74.9585 597.226 72.3953 596.16 70.5059 594.267C68.6165 592.375 67.5553 589.809 67.5553 587.135V107.247C67.5786 104.588 68.65 102.045 70.5369 100.172C72.4238 98.2981 74.9738 97.2445 77.6329 97.24H419.016C421.693 97.24 424.261 98.3036 426.154 100.197C428.048 102.09 429.111 104.658 429.111 107.335V587.135C429.111 589.813 428.048 592.38 426.154 594.274C424.261 596.167 421.693 597.23 419.016 597.23ZM77.6329 97.5936C75.0758 97.5983 72.6249 98.6174 70.8184 100.427C69.0119 102.237 67.9973 104.69 67.9973 107.247V587.135C67.9973 589.692 69.0119 592.145 70.8184 593.955C72.6249 595.765 75.0758 596.784 77.6329 596.788H419.016C421.575 596.784 424.027 595.765 425.837 593.956C427.646 592.147 428.665 589.694 428.669 587.135V107.247C428.665 104.688 427.646 102.235 425.837 100.426C424.027 98.6168 421.575 97.5983 419.016 97.5936H77.6329Z" fill="#EBEBEB"/>
<path d="M801.452 597.23H460.051C457.375 597.226 454.81 596.161 452.918 594.268C451.026 592.376 449.961 589.811 449.956 587.135V107.247C449.984 104.586 451.059 102.044 452.949 100.171C454.839 98.2974 457.391 97.2445 460.051 97.24H801.452C804.108 97.2492 806.654 98.3048 808.537 100.178C810.42 102.051 811.489 104.591 811.512 107.247V587.135C811.512 589.806 810.453 592.369 808.568 594.261C806.682 596.153 804.123 597.221 801.452 597.23ZM460.051 97.5936C457.493 97.5983 455.04 98.6168 453.231 100.426C451.421 102.235 450.403 104.688 450.398 107.247V587.135C450.403 589.694 451.421 592.147 453.231 593.956C455.04 595.765 457.493 596.784 460.051 596.788H801.452C804.011 596.784 806.464 595.765 808.273 593.956C810.082 592.147 811.101 589.694 811.105 587.135V107.247C811.101 104.688 810.082 102.235 808.273 100.426C806.464 98.6168 804.011 97.5983 801.452 97.5936H460.051Z" fill="#EBEBEB"/>
<path d="M795.423 692.915H739.607V693.357H795.423V692.915Z" fill="#EBEBEB"/>
<path d="M592.881 688.123H533.812V688.565H592.881V688.123Z" fill="#EBEBEB"/>
<path d="M811.547 709.339H701.171V709.781H811.547V709.339Z" fill="#EBEBEB"/>
<path d="M126.748 706.369H92.7493V706.811H126.748V706.369Z" fill="#EBEBEB"/>
<path d="M196.053 706.369H142.501V706.811H196.053V706.369Z" fill="#EBEBEB"/>
<path d="M431.64 698.908H335.177V699.35H431.64V698.908Z" fill="#EBEBEB"/>
<path d="M662.364 676.083V368.875H585.349V676.083H662.364Z" fill="#F0F0F0"/>
<path d="M658.138 445.589V377.839H589.575V445.589H658.138Z" fill="#F5F5F5"/>
<path d="M639.044 376.955H608.687C608.687 378.831 609.432 380.63 610.758 381.956C612.085 383.282 613.883 384.027 615.759 384.027H632.06C633.92 384.004 635.696 383.249 637.004 381.925C638.311 380.601 639.044 378.816 639.044 376.955Z" fill="#E6E6E6"/>
<path d="M658.138 519.438V451.689H589.575V519.438H658.138Z" fill="#F5F5F5"/>
<path d="M658.138 593.27V525.52H589.575V593.27H658.138Z" fill="#F5F5F5"/>
<path d="M658.138 667.102V599.352H589.575V667.102H658.138Z" fill="#F5F5F5"/>
<path d="M639.044 450.84H608.687C608.687 452.716 609.432 454.514 610.758 455.841C612.085 457.167 613.883 457.912 615.759 457.912H632.06C633.92 457.889 635.696 457.133 637.004 455.81C638.311 454.486 639.044 452.7 639.044 450.84Z" fill="#E6E6E6"/>
<path d="M639.044 524.619H608.687C608.687 526.494 609.432 528.293 610.758 529.619C612.085 530.946 613.883 531.691 615.759 531.691H632.06C633.92 531.667 635.696 530.912 637.004 529.588C638.311 528.265 639.044 526.479 639.044 524.619Z" fill="#E6E6E6"/>
<path d="M639.044 598.45H608.687C608.687 600.326 609.432 602.125 610.758 603.451C612.085 604.777 613.883 605.522 615.759 605.522H632.06C633.92 605.499 635.696 604.744 637.004 603.42C638.311 602.096 639.044 600.311 639.044 598.45Z" fill="#E6E6E6"/>
<path d="M700.835 676.083V368.875H662.364V676.083H700.835Z" fill="#F5F5F5"/>
<path d="M746.326 676.101V368.893H669.312V676.101H746.326Z" fill="#F0F0F0"/>
<path d="M742.1 445.589V377.839H673.537V445.589H742.1Z" fill="#F5F5F5"/>
<path d="M723.006 376.955H692.649C692.649 378.831 693.394 380.63 694.721 381.956C696.047 383.282 697.846 384.027 699.721 384.027H716.04C717.897 383.999 719.669 383.242 720.972 381.919C722.276 380.596 723.006 378.813 723.006 376.955Z" fill="#E6E6E6"/>
<path d="M742.1 519.421V451.671H673.537V519.421H742.1Z" fill="#F5F5F5"/>
<path d="M742.118 593.27V525.52H673.555V593.27H742.118Z" fill="#F5F5F5"/>
<path d="M742.1 667.102V599.352H673.537V667.102H742.1Z" fill="#F5F5F5"/>
<path d="M723.006 450.84H692.649C692.649 452.716 693.394 454.514 694.721 455.841C696.047 457.167 697.846 457.912 699.721 457.912H716.04C717.897 457.884 719.669 457.127 720.972 455.804C722.276 454.48 723.006 452.697 723.006 450.84Z" fill="#E6E6E6"/>
<path d="M723.006 524.619H692.649C692.649 526.494 693.394 528.293 694.721 529.619C696.047 530.946 697.846 531.691 699.721 531.691H716.04C717.897 531.663 719.669 530.905 720.972 529.582C722.276 528.259 723.006 526.476 723.006 524.619Z" fill="#E6E6E6"/>
<path d="M723.006 598.45H692.649C692.649 600.326 693.394 602.125 694.721 603.451C696.047 604.777 697.846 605.522 699.721 605.522H716.04C717.897 605.494 719.669 604.737 720.972 603.414C722.276 602.09 723.006 600.308 723.006 598.45Z" fill="#E6E6E6"/>
<path d="M784.797 676.083V368.875H746.326V676.083H784.797Z" fill="#F5F5F5"/>
<path d="M736.655 307.526H714.166V368.875H736.655V307.526Z" fill="#E0E0E0"/>
<path d="M643.552 368.875H729.335L742.1 269.602H656.317L643.552 368.875Z" fill="#E6E6E6"/>
<path d="M633.757 368.875H727.143L739.926 269.602H646.522L633.757 368.875Z" fill="#F0F0F0"/>
<path d="M720.336 361.061L731.086 277.417H653.347L642.58 361.061H720.336Z" fill="white"/>
<path d="M700.49 333.792C709.643 325.209 710.944 311.727 703.396 303.678C695.849 295.63 682.311 296.063 673.158 304.646C664.006 313.229 662.705 326.711 670.252 334.759C677.8 342.808 691.338 342.375 700.49 333.792Z" fill="#E6E6E6"/>
<path d="M318.947 676.083H558.865L558.865 169.039L318.947 169.039L318.947 676.083Z" fill="#E6E6E6"/>
<path d="M313.608 676.083H553.525L553.525 169.039L313.608 169.039L313.608 676.083Z" fill="#F5F5F5"/>
<path d="M543.96 665.334V179.788H323.19V665.334H543.96Z" fill="white"/>
<path d="M327.221 665.334L327.221 179.788H323.19L323.19 665.334H327.221Z" fill="#E6E6E6"/>
<path d="M317.586 337.264H549.583V322.837H317.586V337.264Z" fill="#F5F5F5"/>
<path d="M238.874 662.346H272.307V445.536H238.874L238.874 662.346Z" fill="#F0F0F0"/>
<path d="M100.988 676.083H265.89V662.346H100.988V676.083Z" fill="#F0F0F0"/>
<path d="M238.874 445.536H94.5703V662.346H238.874V445.536Z" fill="#F5F5F5"/>
<path d="M225.721 472.215H107.707V543.324H225.721V472.215Z" fill="#F0F0F0"/>
<path d="M225.721 564.558H107.707V635.667H225.721V564.558Z" fill="#F0F0F0"/>
<path d="M131.645 520.305V495.27C131.645 493.063 129.856 491.274 127.65 491.274H125.882C123.675 491.274 121.886 493.063 121.886 495.27V520.305C121.886 522.511 123.675 524.3 125.882 524.3H127.65C129.856 524.3 131.645 522.511 131.645 520.305Z" fill="#F5F5F5"/>
<path d="M131.628 612.63V587.595C131.628 585.388 129.839 583.599 127.632 583.599H125.864C123.657 583.599 121.868 585.388 121.868 587.595V612.63C121.868 614.836 123.657 616.625 125.864 616.625H127.632C129.839 616.625 131.628 614.836 131.628 612.63Z" fill="#F5F5F5"/>
<path d="M238.203 323.067C234.472 324.941 224.306 322.925 227.683 329.803C229.639 333.396 231.968 336.774 234.631 339.88C238.415 344.548 237.708 349.622 233.235 351.461C232.26 351.807 231.402 352.419 230.759 353.229C228.708 356.181 233.57 360.142 235.957 363.094C238.344 366.047 239.299 368.946 237.548 371.156C235.798 373.366 231.537 372.677 228.319 373.419C220.558 375.187 228.532 385.795 227.718 391.365C227.153 395.113 224.094 396.174 219.957 396.669C216.58 397.093 212.072 397.393 211.877 400.859C211.718 403.864 215.625 407.259 216.651 410.406C217.14 411.762 217.326 413.209 217.194 414.645C217.063 416.081 216.618 417.471 215.89 418.716C215.206 419.762 214.312 420.656 213.265 421.34C212.219 422.025 211.042 422.486 209.809 422.694C205.972 423.507 200.173 422.694 199.89 426.99C199.766 428.917 201.11 430.632 200.173 432.418C199.663 433.161 198.997 433.783 198.222 434.241C197.446 434.699 196.579 434.982 195.682 435.07C192.008 435.629 188.266 435.563 184.614 434.875C180.106 434.044 173.458 430.066 175.898 426.247C176.323 425.694 176.856 425.232 177.463 424.889C178.071 424.545 178.741 424.328 179.434 424.249C180.513 424.02 183.66 424.355 184.066 423.631C184.473 422.906 183.395 420.095 183.342 419.069C183.235 416.252 183.679 413.441 184.65 410.795C185.898 407.339 187.883 404.196 190.467 401.584C191.545 400.505 193.242 399.71 193.455 398.136C193.448 396.365 192.822 394.651 191.686 393.292C189.918 390.852 187.284 388.536 186.382 385.937C184.862 381.87 188.539 380.633 191.934 379.643C195.028 378.812 199.006 377.733 198.034 373.985C197.273 371.28 193.879 369.07 192.853 366.436C191.474 362.9 194.816 362.776 197.203 361.503C200.314 359.859 201.092 356.942 199.978 353.229C198.21 347.129 186.913 338.501 192.641 334.523C194.109 333.516 195.452 333.18 196.336 331.659C197.22 330.139 197.397 328.017 198.617 326.55C200.544 324.216 204.54 323.827 206.626 321.652C210.905 317.215 201.658 309.276 210.162 307.508C211.96 307.289 213.664 306.586 215.095 305.475C215.873 304.75 216.492 301.267 217.358 301.02C221.23 299.941 228.213 307.455 230.406 309.771C232.81 312.512 242.693 320.821 238.203 323.067Z" fill="#E0E0E0"/>
<path d="M171.814 426.654C174.113 422.393 184.19 418.15 177.49 413.217C173.894 410.772 170.025 408.754 165.962 407.206C160.128 404.766 158.059 399.144 161.012 394.494C161.703 393.516 162.135 392.378 162.267 391.188C162.515 386.891 156.097 385.884 152.419 384.328C148.742 382.772 146.32 380.403 146.709 377.044C147.115 373.349 151.182 371.74 153.622 368.999C159.527 362.369 146.762 356.376 144.552 350.241C143.049 346.051 145.17 343.169 148.547 339.969C151.288 337.423 155.107 334.311 153.409 330.651C151.96 327.469 146.691 326.426 144.11 323.827C142.911 322.662 141.959 321.269 141.309 319.729C140.659 318.189 140.325 316.534 140.326 314.863C140.368 311.931 141.525 309.124 143.562 307.013C146.514 303.795 152.083 301.055 150.015 296.405C149.078 294.354 146.974 293.435 146.85 291.101C146.89 290.058 147.137 289.032 147.577 288.085C148.017 287.138 148.642 286.288 149.414 285.585C152.272 282.785 155.615 280.527 159.279 278.92C163.699 276.975 171.655 276.904 171.655 282.332C171.518 283.938 170.802 285.44 169.64 286.557C168.809 287.459 165.856 289.05 165.891 290.093C165.927 291.137 168.384 293.294 168.968 294.319C170.599 297.195 171.707 300.338 172.239 303.601C172.996 307.924 172.93 312.351 172.044 316.649C171.673 318.417 170.594 320.291 171.248 322.041C172.168 323.771 173.672 325.118 175.492 325.842C178.303 327.257 181.91 327.964 184.155 330.033C187.691 333.268 185.127 336.875 182.617 339.933C180.336 342.709 177.313 346.334 180.265 349.516C182.387 351.814 186.559 351.956 188.875 354.024C191.969 356.8 189.105 359.01 187.673 361.786C185.905 365.322 186.683 368.858 189.653 371.97C194.568 377.079 209.101 379.042 206.131 386.573C205.389 388.518 204.363 389.703 204.363 391.789C204.363 393.875 205.371 396.191 205.088 398.454C204.628 401.99 201.322 404.925 200.633 408.443C199.236 415.639 211.612 417.973 205.176 425.133C203.673 426.552 202.554 428.328 201.923 430.296C201.623 431.498 202.931 435.458 202.295 436.254C199.466 439.79 189.282 436.413 186.117 435.388C182.228 434.097 169.074 431.728 171.814 426.654Z" fill="#F5F5F5"/>
<path d="M146.072 417.053C146.072 417.053 147.292 445.536 193.914 445.536C240.536 445.536 241.774 417.053 241.774 417.053H146.072Z" fill="#F0F0F0"/>
<path d="M442 755.926C631.322 755.926 784.798 746.966 784.798 735.912C784.798 724.859 631.322 715.899 442 715.899C252.678 715.899 99.2025 724.859 99.2025 735.912C99.2025 746.966 252.678 755.926 442 755.926Z" fill="#F5F5F5"/>
<path d="M554.339 721.362L540.159 721.15L536.889 688.229L551.086 688.442L554.339 721.362Z" fill="#FFB573"/>
<path d="M627.339 721.415H613.16L602.11 688.548H616.289L627.339 721.415Z" fill="#FFB573"/>
<path d="M611.268 719.771H628.559C628.843 719.771 629.117 719.868 629.339 720.044C629.56 720.221 629.715 720.467 629.779 720.743L632.573 733.366C632.643 733.673 632.643 733.991 632.571 734.297C632.498 734.603 632.357 734.889 632.157 735.131C631.957 735.374 631.704 735.568 631.417 735.697C631.131 735.826 630.818 735.888 630.504 735.877C624.935 735.789 620.869 735.453 613.867 735.453C609.553 735.453 596.541 735.912 590.583 735.912C584.625 735.912 583.847 730.025 586.286 729.477C597.213 727.09 605.452 723.802 608.952 720.637C609.595 720.079 610.417 719.771 611.268 719.771Z" fill="#263238"/>
<path d="M540.283 719.576L555.771 719.824C556.052 719.825 556.324 719.922 556.542 720.099C556.761 720.276 556.913 720.522 556.973 720.796L559.572 733.455C559.64 733.76 559.636 734.077 559.563 734.38C559.489 734.684 559.347 734.967 559.148 735.208C558.948 735.448 558.696 735.64 558.411 735.768C558.126 735.896 557.816 735.958 557.503 735.948C551.899 735.771 543.837 735.311 536.8 735.205C528.597 735.082 521.489 735.417 511.854 735.205C506.037 735.117 504.516 729.212 506.956 728.717C518.095 726.454 527.165 726.33 536.853 720.566C537.884 719.928 539.071 719.585 540.283 719.576Z" fill="#263238"/>
<path d="M548.999 298.491C544.511 308.454 539.513 318.179 534.024 327.628C531.284 332.349 528.42 337.034 525.308 341.631C522.211 346.343 518.859 350.881 515.266 355.227L513.869 356.888L513.162 357.719C512.915 358.002 512.755 358.214 512.26 358.727C510.233 361.008 507.633 362.705 504.729 363.642C502.93 364.206 501.036 364.404 499.159 364.226C497.504 364.084 495.885 363.666 494.368 362.988C492.183 361.995 490.19 360.625 488.481 358.939C486.058 356.522 483.977 353.786 482.293 350.807C480.816 348.251 479.476 345.619 478.279 342.921C473.912 332.712 470.641 322.068 468.52 311.168L478.704 308.003C480.878 312.635 483.124 317.427 485.475 321.988C487.827 326.55 490.231 331.111 492.83 335.301C494.049 337.345 495.377 339.322 496.808 341.224C497.93 342.768 499.236 344.169 500.698 345.396C501.228 345.803 501.635 345.891 501.422 345.715C501.126 345.555 500.802 345.453 500.468 345.414C499.917 345.351 499.359 345.393 498.824 345.538C497.763 345.874 497.604 346.121 497.727 345.892L499.69 343.186C505.432 334.854 510.663 326.181 515.354 317.215C520.216 308.18 524.955 298.739 529.392 289.598L548.999 298.491Z" fill="#FFB573"/>
<path d="M554.904 289.598C558.723 302.611 531.797 338.095 531.797 338.095L504.623 320.627C509.744 309.376 516.056 298.707 523.452 288.803C534.572 274.535 550.697 275.313 554.904 289.598Z" fill="#407BFF"/>
<path opacity="0.2" d="M554.904 289.598C558.723 302.611 531.797 338.095 531.797 338.095L504.623 320.627C509.744 309.376 516.056 298.707 523.452 288.803C534.572 274.535 550.697 275.313 554.904 289.598Z" fill="black"/>
<path opacity="0.2" d="M538.338 304.874C532.751 307.261 524.53 320.786 520.252 330.687L531.779 338.095C538.219 329.484 544.01 320.407 549.105 310.938C545.463 306.942 541.291 303.619 538.338 304.874Z" fill="black"/>
<path d="M478.456 313.095L481.992 297.095L465.85 296.971C465.85 296.971 461.536 308.993 470.217 314.651L478.456 313.095Z" fill="#FFB573"/>
<path d="M480.1 282.102L467.159 286.752L465.797 296.971L481.939 297.095L480.1 282.102Z" fill="#FFB573"/>
<path opacity="0.2" d="M536.906 688.229L538.586 705.202L552.765 705.432L551.103 688.459L536.906 688.229Z" fill="black"/>
<path opacity="0.2" d="M616.289 688.565H602.11L607.803 705.503H622L616.289 688.565Z" fill="black"/>
<path d="M618.164 283.835C602.87 337.741 605.964 394.954 604.585 406.534C593.482 405.738 551.669 402.609 528.88 400.912C518.943 320.132 538.816 278.637 538.816 278.637C538.816 278.637 543.695 277.7 550.308 277.01C552.376 276.798 554.622 276.621 556.955 276.498C558.246 276.498 559.554 276.374 560.88 276.356C571.643 276.54 582.386 277.337 593.058 278.743C595.073 278.991 597.124 279.309 599.122 279.627C601.12 279.945 602.764 280.281 604.426 280.617C612.205 282.155 618.164 283.835 618.164 283.835Z" fill="#407BFF"/>
<path opacity="0.2" d="M618.164 283.835C602.87 337.741 605.964 394.954 604.585 406.534C593.482 405.738 551.669 402.609 528.88 400.912C518.943 320.132 538.816 278.637 538.816 278.637C538.816 278.637 543.695 277.7 550.308 277.01C552.376 276.798 554.622 276.621 556.955 276.498C558.246 276.498 559.554 276.374 560.88 276.356C571.643 276.54 582.386 277.337 593.058 278.743C595.073 278.991 597.124 279.309 599.122 279.627C601.12 279.945 602.764 280.281 604.426 280.617C612.205 282.155 618.164 283.835 618.164 283.835Z" fill="black"/>
<path opacity="0.2" d="M602.004 306.96C600.643 312.176 602.198 335.973 607.644 341.843C608.386 334.223 609.412 326.267 610.685 318.134L602.004 306.96Z" fill="black"/>
<path d="M592.563 242.216C589.769 252.417 586.322 271.247 593.058 278.69C587.011 283.87 579.179 289.775 566.856 289.298C554.533 288.821 557.291 280.458 560.88 276.303C572.62 274.394 572.973 265.801 571.488 257.615L592.563 242.216Z" fill="#FFB573"/>
<path d="M591.926 275.808C591.926 275.808 586.835 284.206 566.361 289.316C569.756 292.463 571.4 299.924 571.4 299.924C571.4 299.924 598.114 293.488 597.301 278.46C595.671 277.281 593.854 276.385 591.926 275.808Z" fill="#263238"/>
<path d="M559.077 297.996C559.077 297.996 561.764 291.526 566.361 289.316C564.222 287.106 561.057 280.476 562.931 275.507C561.346 275.381 559.75 275.482 558.193 275.808C558.193 275.808 550.096 286.009 559.077 297.996Z" fill="#263238"/>
<path d="M565.477 298.191C565.247 299.57 564.434 300.595 563.709 300.454C562.984 300.312 562.542 299.093 562.79 297.713C563.037 296.334 563.851 295.291 564.558 295.433C565.265 295.574 565.76 296.794 565.477 298.191Z" fill="#263238"/>
<path d="M564.275 306.147C564.151 307.561 563.444 308.64 562.684 308.569C561.924 308.498 561.411 307.314 561.535 305.917C561.658 304.52 562.366 303.424 563.126 303.495C563.886 303.566 564.399 304.75 564.275 306.147Z" fill="#263238"/>
<path opacity="0.2" d="M584.006 248.563L571.63 257.668C572 259.573 572.19 261.509 572.196 263.45C576.669 263.132 583.086 258.747 583.9 254.168C584.26 252.32 584.296 250.423 584.006 248.563Z" fill="black"/>
<path d="M564.169 203.691C553.137 203.444 550.909 230.105 558.069 234.755C565.23 239.405 584.819 204.133 564.169 203.691Z" fill="#263238"/>
<path d="M594.95 226.781C593.058 240.731 592.651 249.005 585.031 255.67C573.575 265.695 556.743 257.987 554.445 243.754C552.376 230.936 555.824 210.268 569.968 205.707C573.08 204.685 576.402 204.476 579.618 205.1C582.833 205.724 585.836 207.16 588.34 209.273C590.844 211.385 592.765 214.103 593.922 217.167C595.079 220.232 595.433 223.541 594.95 226.781Z" fill="#FFB573"/>
<path d="M592.952 240.448C585.88 244.179 577.712 205.565 596.488 207.581C620.073 210.092 607.149 233.005 592.952 240.448Z" fill="#263238"/>
<path d="M561.464 207.493C561.464 216.138 589.522 224.731 599.14 221.778C608.758 218.825 611.18 211.17 606.017 205.866C597.283 196.725 561.464 190.555 561.464 207.493Z" fill="#263238"/>
<path d="M562.595 208.624C563.243 211.484 564.641 214.12 566.644 216.262C564.133 216.12 561.641 212.567 560.845 210.498C560.049 208.43 562.595 208.624 562.595 208.624Z" fill="#263238"/>
<path d="M600.13 242.711C599.092 244.127 597.784 245.325 596.283 246.235C594.781 247.145 593.114 247.75 591.378 248.015C586.729 248.687 585.014 244.373 586.817 240.307C588.443 236.647 592.81 231.891 597.23 233.093C601.65 234.295 602.676 239.193 600.13 242.711Z" fill="#FFB573"/>
<path d="M533.317 701.896L557.344 702.267C557.344 702.267 549.318 607.344 551.492 563.179C552.146 549.742 554.851 530.948 558.387 510.811C562.878 485.422 565.035 475.309 570.763 443.238C574.901 420.36 578.578 404.678 578.578 404.678L528.809 400.965C528.809 400.965 507.77 515.319 508.265 558.688C508.76 603.648 533.317 701.896 533.317 701.896Z" fill="#263238"/>
<path opacity="0.2" d="M561.128 434.928C552.182 457.205 552.005 509.396 556.124 524.088C556.832 519.739 557.592 515.248 558.387 510.758C562.878 485.369 565.035 475.256 570.763 443.185C570.87 442.548 570.993 441.929 571.099 441.31C568.168 438.624 564.795 436.465 561.128 434.928Z" fill="black"/>
<path d="M555.735 402.91C555.735 402.91 560.12 522.586 563.462 564.027C567.104 609.43 601.12 702.214 601.12 702.214H627.11C627.11 702.214 609.766 617.35 604.444 573.15C598.38 522.939 604.55 406.499 604.55 406.499L555.735 402.91Z" fill="#263238"/>
<path d="M598.026 702.78H628.63V693.639L594.419 693.038L598.026 702.78Z" fill="#407BFF"/>
<path d="M530.294 702.356L558.918 702.798L559.059 693.551L527.058 692.561L530.294 702.356Z" fill="#407BFF"/>
<path d="M573.398 229.115C573.309 230.264 572.637 231.148 571.895 231.078C571.152 231.007 570.604 230.052 570.693 228.921C570.781 227.789 571.453 226.905 572.196 226.958C572.938 227.011 573.486 228.072 573.398 229.115Z" fill="#263238"/>
<path d="M560.456 228.161C560.456 229.31 559.696 230.176 558.953 230.123C558.211 230.07 557.68 229.098 557.751 227.966C557.822 226.835 558.511 225.933 559.271 225.986C560.032 226.039 560.58 227.011 560.456 228.161Z" fill="#263238"/>
<path d="M564.558 229.027C562.932 232.418 560.85 235.571 558.37 238.397C559.1 239.001 559.952 239.44 560.867 239.684C561.783 239.928 562.74 239.972 563.674 239.812L564.558 229.027Z" fill="#ED893E"/>
<path d="M568.341 243.224C569.625 243.173 570.884 242.858 572.04 242.298C573.196 241.738 574.224 240.946 575.06 239.971C575.091 239.939 575.116 239.902 575.133 239.861C575.15 239.82 575.159 239.776 575.159 239.732C575.159 239.688 575.15 239.644 575.133 239.603C575.116 239.562 575.091 239.525 575.06 239.493C574.994 239.434 574.909 239.401 574.821 239.401C574.733 239.401 574.647 239.434 574.582 239.493C573.634 240.557 572.448 241.383 571.121 241.902C569.794 242.421 568.363 242.62 566.945 242.481C566.858 242.476 566.773 242.505 566.707 242.561C566.642 242.617 566.6 242.696 566.591 242.782C566.586 242.826 566.59 242.871 566.602 242.913C566.615 242.956 566.636 242.996 566.664 243.03C566.692 243.065 566.726 243.093 566.765 243.114C566.804 243.136 566.847 243.149 566.891 243.153C567.373 243.21 567.857 243.233 568.341 243.224Z" fill="#263238"/>
<path d="M577.694 225.243C577.808 225.241 577.919 225.204 578.012 225.137C578.086 225.091 578.15 225.029 578.201 224.958C578.251 224.886 578.286 224.804 578.304 224.719C578.322 224.633 578.323 224.544 578.306 224.458C578.289 224.372 578.256 224.291 578.207 224.218C577.646 223.298 576.87 222.528 575.946 221.974C575.022 221.42 573.978 221.098 572.903 221.035C572.725 221.035 572.554 221.106 572.428 221.232C572.302 221.358 572.231 221.529 572.231 221.707C572.231 221.885 572.302 222.056 572.428 222.182C572.554 222.308 572.725 222.379 572.903 222.379C573.744 222.448 574.556 222.716 575.273 223.162C575.989 223.608 576.589 224.218 577.022 224.943C577.093 225.053 577.194 225.14 577.313 225.193C577.433 225.247 577.565 225.264 577.694 225.243Z" fill="#263238"/>
<path d="M555.258 223.316C555.369 223.307 555.477 223.272 555.572 223.214C555.668 223.156 555.748 223.075 555.806 222.98C556.206 222.233 556.779 221.593 557.478 221.113C558.176 220.633 558.979 220.328 559.82 220.222C559.907 220.218 559.993 220.196 560.072 220.157C560.151 220.119 560.221 220.065 560.279 220C560.336 219.934 560.38 219.857 560.408 219.773C560.435 219.69 560.445 219.602 560.438 219.515C560.436 219.427 560.416 219.341 560.38 219.262C560.344 219.182 560.292 219.11 560.228 219.051C560.164 218.992 560.088 218.946 560.006 218.916C559.924 218.886 559.836 218.874 559.749 218.878C558.688 219.003 557.672 219.377 556.784 219.97C555.895 220.563 555.16 221.358 554.639 222.291C554.595 222.367 554.566 222.452 554.555 222.539C554.543 222.627 554.549 222.716 554.572 222.802C554.595 222.887 554.635 222.967 554.689 223.037C554.743 223.107 554.81 223.166 554.887 223.21C554.999 223.277 555.127 223.314 555.258 223.316Z" fill="#263238"/>
<path d="M606.565 722.263C607.818 722.229 609.063 722.057 610.278 721.751C610.345 721.734 610.406 721.699 610.453 721.649C610.5 721.598 610.532 721.536 610.543 721.468C610.549 721.403 610.537 721.337 610.509 721.278C610.481 721.219 610.438 721.169 610.384 721.132C609.872 720.813 605.293 718.002 603.719 718.798C603.545 718.89 603.399 719.027 603.296 719.195C603.194 719.363 603.138 719.556 603.136 719.753C603.103 720.082 603.151 720.415 603.274 720.723C603.397 721.031 603.592 721.304 603.843 721.521C604.641 722.066 605.6 722.328 606.565 722.263ZM609.306 721.273C606.901 721.751 605.045 721.662 604.267 721.008C604.096 720.862 603.964 720.675 603.884 720.465C603.804 720.255 603.777 720.029 603.807 719.806C603.802 719.725 603.819 719.644 603.857 719.573C603.894 719.501 603.95 719.441 604.02 719.399C604.833 718.975 607.45 720.195 609.306 721.344V721.273Z" fill="#407BFF"/>
<path d="M610.207 721.751C610.265 721.767 610.326 721.767 610.384 721.751C610.434 721.718 610.475 721.673 610.502 721.621C610.53 721.568 610.544 721.51 610.543 721.45C610.543 721.273 610.19 717.172 608.546 715.828C608.352 715.657 608.124 715.53 607.877 715.457C607.629 715.384 607.369 715.366 607.113 715.404C606.861 715.399 606.614 715.483 606.417 715.641C606.22 715.799 606.085 716.022 606.035 716.27C605.734 717.861 608.581 720.973 610.048 721.768L610.207 721.751ZM607.343 716.04C607.626 716.038 607.898 716.146 608.104 716.341C609.103 717.614 609.689 719.162 609.783 720.778C608.333 719.664 606.512 717.242 606.689 716.394C606.689 716.305 606.689 716.093 607.184 716.04H607.343Z" fill="#407BFF"/>
<path d="M538.851 721.45C538.911 721.428 538.965 721.391 539.005 721.341C539.046 721.291 539.072 721.231 539.081 721.167C539.089 721.1 539.076 721.032 539.044 720.972C539.013 720.912 538.964 720.863 538.904 720.831C538.268 720.478 532.61 717.508 530.877 718.427C530.714 718.517 530.577 718.647 530.478 718.804C530.379 718.962 530.322 719.143 530.312 719.329C530.27 719.631 530.304 719.939 530.408 720.225C530.513 720.512 530.686 720.768 530.913 720.973C532.433 722.37 536.517 721.875 538.816 721.45H538.851ZM531.319 718.975C532.38 718.621 535.456 719.841 537.702 720.955C534.555 721.433 532.221 721.256 531.355 720.478C531.207 720.339 531.095 720.167 531.028 719.977C530.96 719.786 530.939 719.582 530.966 719.382C530.966 719.307 530.988 719.234 531.029 719.171C531.069 719.108 531.127 719.059 531.196 719.028L531.319 718.975Z" fill="#407BFF"/>
<path d="M538.851 721.45H538.939C538.99 721.42 539.03 721.375 539.055 721.321C539.081 721.268 539.089 721.208 539.081 721.15C539.081 720.991 538.745 717.154 536.959 715.651C536.72 715.437 536.44 715.274 536.136 715.171C535.833 715.067 535.511 715.026 535.191 715.05C534.254 715.05 533.989 715.58 533.918 715.969C533.635 717.561 536.977 720.69 538.674 721.486C538.735 721.487 538.795 721.475 538.851 721.45ZM534.82 715.722H535.174C535.42 715.699 535.669 715.728 535.903 715.807C536.138 715.886 536.353 716.014 536.535 716.182C537.563 717.432 538.181 718.969 538.303 720.584C536.535 719.505 534.307 717.048 534.466 716.093C534.519 716.04 534.537 715.81 534.82 715.722Z" fill="#407BFF"/>
<path d="M621.806 292.675C626.756 302.611 631.194 312.547 635.278 322.731C637.346 327.823 639.256 333.003 641.13 338.219C642.049 340.853 642.898 343.522 643.782 346.139L644.418 348.137L645.108 350.435C645.603 352.009 645.886 353.582 646.257 355.138C648.207 367.044 647.653 379.225 644.631 390.905C643.32 396.449 641.661 401.906 639.662 407.241C638.655 409.893 637.576 412.545 636.427 415.073C635.278 417.602 634.111 420.148 632.679 422.8L622.902 418.556C624.263 413.73 625.642 408.514 626.615 403.44C627.587 398.366 628.489 393.239 629.054 388.182C629.613 383.217 629.814 378.219 629.656 373.225C629.56 368.549 628.908 363.902 627.711 359.381C627.375 358.338 627.11 357.242 626.703 356.252C626.491 355.739 626.367 355.315 626.102 354.696L625.359 352.928C624.369 350.506 623.291 348.084 622.265 345.662C620.197 340.782 617.951 335.955 615.794 331.093L602.446 302.045L621.806 292.675Z" fill="#FFB573"/>
<path d="M618.164 283.835C631.105 287.901 643.835 331.801 643.835 331.801L613.885 344.901C613.885 344.901 604.196 323.685 598.609 307.066C592.545 288.944 602.464 278.92 618.164 283.835Z" fill="#407BFF"/>
<path opacity="0.2" d="M618.164 283.835C631.105 287.901 643.835 331.801 643.835 331.801L613.885 344.901C613.885 344.901 604.196 323.685 598.609 307.066C592.545 288.944 602.464 278.92 618.164 283.835Z" fill="black"/>
<path d="M623.697 416.17L616.714 428.776L633.174 433.054C633.174 433.054 638.142 420.837 632.272 416.948L623.697 416.17Z" fill="#FFB573"/>
<path d="M615.494 443.079L630.61 444.334L633.174 433.054L616.714 428.775L615.494 443.079Z" fill="#FFB573"/>
<path opacity="0.19" d="M524.654 511.429H150.581L176.959 137.374H551.033L524.654 511.429Z" fill="#407BFF"/>
<path opacity="0.2" d="M234.861 511.429H181.061L315.093 137.374H368.893L234.861 511.429Z" fill="white"/>
<path opacity="0.2" d="M365.534 511.429H246.866L380.898 137.374H499.566L365.534 511.429Z" fill="white"/>
<path d="M177.949 201.251L166.988 200.473L171.832 131.875H240.448V142.872H182.069L177.949 201.251Z" fill="#407BFF"/>
<path d="M214.069 516.928H144.675L149.573 447.569L160.534 448.347L156.468 505.931H214.069V516.928Z" fill="#407BFF"/>
<path d="M552.023 201.251L541.079 200.473L545.127 142.872H487.526V131.875H556.92L552.023 201.251Z" fill="#407BFF"/>
<path d="M529.764 516.928H461.147V505.931H519.527L523.646 447.569L534.608 448.347L529.764 516.928Z" fill="#407BFF"/>
<g opacity="0.3">
<path d="M343.434 456.268C343.109 456.261 342.789 456.183 342.497 456.038C342.391 456.038 339.792 454.553 335.425 451.865C333.657 450.752 331.429 449.39 329.007 447.852C321.316 442.849 313.908 437.58 306.96 432.188C305.192 430.879 303.601 429.536 301.886 428.156C295.486 422.852 289.51 417.655 284.312 412.492C282.968 411.148 281.642 409.805 280.316 408.426C275.489 403.455 270.955 398.207 266.738 392.708C265.713 391.382 264.723 390.021 263.75 388.642C260.154 383.63 256.945 378.352 254.15 372.853C253.478 371.527 252.806 370.131 252.188 368.734C249.866 363.621 248.054 358.291 246.777 352.822C246.459 351.567 246.176 350.205 245.929 348.685C245.734 347.695 245.575 346.652 245.451 345.626C244.903 341.578 244.444 337.458 244.002 333.003C243.86 331.677 243.736 330.333 243.613 329.007C243.153 323.703 242.764 318.523 242.481 313.36V312.936C242.481 311.769 242.34 310.602 242.287 309.4C242.039 304.308 241.862 299.057 241.756 293.788V289.775C241.756 284.206 241.756 278.955 241.756 274.164C241.756 272.82 241.756 271.476 241.845 270.15C241.968 264.387 242.163 259.136 242.393 254.539V254.238C242.393 252.965 242.499 251.728 242.57 250.508C242.888 244.815 243.259 239.423 243.648 234.896C243.772 233.358 243.878 232.05 244.002 230.883C244.408 226.428 244.709 223.935 244.709 223.935C244.745 223.478 244.943 223.049 245.267 222.725C245.591 222.401 246.02 222.203 246.477 222.167C246.795 222.167 279.415 219.639 314.156 213.521C321.228 212.284 328.052 210.94 334.523 209.543C344.053 207.457 352.769 205.194 360.46 202.807C360.845 202.684 361.259 202.684 361.644 202.807C368.982 205.212 377.38 207.475 386.609 209.543C392.885 210.958 399.533 212.284 406.41 213.521C440.285 219.639 472.551 222.149 472.869 222.167C473.362 222.207 473.82 222.435 474.149 222.804C474.478 223.172 474.653 223.653 474.637 224.147C474.637 224.147 474.637 226.622 474.372 231.095C474.372 232.28 474.248 233.623 474.16 235.109C473.895 239.652 473.506 245.045 473.028 250.72C472.922 251.852 472.816 252.983 472.71 254.168V254.751C472.304 259.366 471.738 264.617 471.066 270.345C470.907 271.706 470.748 273.032 470.571 274.376C469.97 279.185 469.245 284.436 468.396 289.97L467.795 293.965C466.946 299.269 466.027 304.573 465.072 309.594C464.86 310.726 464.63 311.875 464.401 313.024L464.277 313.625C463.269 318.753 462.155 324.021 460.953 329.237L459.998 333.268C458.92 337.723 457.877 341.843 456.78 345.874C456.48 346.917 456.179 347.942 455.861 348.968C455.384 350.471 454.924 351.814 454.429 353.087C452.356 358.605 449.8 363.93 446.791 368.999C445.996 370.361 445.147 371.74 444.263 373.083C440.684 378.588 436.744 383.851 432.471 388.836C431.304 390.198 430.137 391.559 428.934 392.885C423.958 398.38 418.706 403.62 413.199 408.585C411.679 409.952 410.158 411.296 408.638 412.616C402.644 417.778 396.014 423.029 388.889 428.263C386.98 429.642 385.106 430.985 383.249 432.294C375.541 437.686 367.337 442.902 359.028 447.94C356.376 449.479 354.024 450.84 351.956 451.954C347.218 454.623 344.424 456.056 344.318 456.109C344.04 456.229 343.737 456.284 343.434 456.268ZM248.369 225.95C248.245 227.117 248.068 228.885 247.856 231.254C247.732 232.421 247.626 233.712 247.52 235.126C247.131 239.723 246.76 245.08 246.442 250.755C246.442 251.958 246.318 253.178 246.247 254.451V254.751C246 259.312 245.823 264.528 245.699 270.256C245.699 271.565 245.699 272.891 245.611 274.234C245.611 279.008 245.611 284.224 245.611 289.74V293.753C245.717 298.969 245.893 304.184 246.141 309.223C246.141 310.39 246.247 311.539 246.318 312.759V313.29C246.601 318.399 246.972 323.615 247.432 328.777C247.555 330.103 247.679 331.429 247.821 332.755C248.245 337.158 248.722 341.259 249.253 345.255C249.376 346.227 249.518 347.2 249.695 348.154C249.942 349.604 250.207 350.86 250.508 352.062C251.734 357.287 253.469 362.38 255.688 367.267C256.289 368.593 256.908 369.919 257.562 371.192C260.273 376.522 263.381 381.64 266.862 386.502C267.817 387.828 268.771 389.154 269.779 390.445C273.91 395.825 278.343 400.967 283.057 405.844C284.365 407.188 285.673 408.514 286.999 409.822C292.162 414.896 297.979 420.077 304.291 425.239C306.059 426.601 307.65 427.927 309.312 429.235C316.154 434.539 323.456 439.755 331.058 444.687C333.445 446.208 335.584 447.551 337.405 448.648C340.216 450.416 342.303 451.582 343.416 452.184C344.601 451.565 346.952 450.416 349.993 448.648C351.991 447.534 354.307 446.19 356.924 444.652C365.198 439.719 373.26 434.521 380.88 429.182C382.648 427.891 384.575 426.565 386.467 425.186C393.539 420.024 400.063 414.843 405.915 409.752C407.418 408.443 408.921 407.117 410.406 405.756C415.825 400.881 420.994 395.736 425.894 390.339C427.078 389.031 428.227 387.722 429.43 386.396C433.599 381.543 437.438 376.416 440.922 371.05C441.788 369.742 442.69 368.416 443.361 367.107C446.298 362.245 448.801 357.134 450.84 351.832C451.317 350.612 451.759 349.339 452.201 347.907C452.52 346.935 452.803 345.944 453.068 344.972C454.164 340.976 455.207 336.892 456.268 332.472C456.604 331.146 456.904 329.82 457.222 328.494C458.407 323.314 459.521 318.098 460.511 313.007L460.635 312.388C460.865 311.256 461.077 310.125 461.289 308.993C462.244 303.972 463.163 298.757 463.994 293.488L464.613 289.51C465.444 284.011 466.169 278.796 466.77 274.005C466.947 272.679 467.088 271.37 467.247 270.062C467.919 264.334 468.485 259.118 468.891 254.521V253.938C468.997 252.771 469.103 251.622 469.192 250.508C469.669 244.886 470.058 239.529 470.306 235.02C470.394 233.535 470.465 232.209 470.536 231.025C470.624 228.868 470.695 227.17 470.73 226.021C463.375 225.385 435.158 222.786 405.738 217.482C398.808 216.226 392.107 214.883 385.778 213.468C376.672 211.417 368.363 209.19 361.026 206.821C353.37 209.19 344.742 211.417 335.337 213.468C328.83 214.883 321.935 216.226 314.828 217.482C284.294 222.768 255.388 225.367 248.369 225.95Z" fill="#407BFF"/>
<path d="M370.744 303.791C380.291 294.575 381.065 279.888 372.473 270.987C363.88 262.086 349.175 262.342 339.628 271.558C330.081 280.775 329.307 295.461 337.9 304.362C346.492 313.263 361.197 313.007 370.744 303.791Z" fill="#407BFF"/>
<path d="M360.283 295.769H354.608H348.95L332.932 370.484H365.764L360.283 295.769Z" fill="#407BFF"/>
<g opacity="0.2">
<path d="M406.057 215.484H314.492C321.281 214.282 328.158 212.956 334.93 211.47H386.202C392.761 212.956 399.444 214.282 406.057 215.484Z" fill="#407BFF"/>
<path d="M472.233 235.038H245.575C245.681 233.553 245.787 232.227 245.911 231.024H472.445C472.392 232.227 472.321 233.553 472.233 235.038Z" fill="#407BFF"/>
<path d="M471.101 250.579C470.995 251.887 470.871 253.231 470.748 254.61H244.302C244.302 253.231 244.426 251.887 244.497 250.579H471.101Z" fill="#407BFF"/>
<path d="M469.103 270.15C468.944 271.476 468.785 272.82 468.608 274.164H243.666C243.666 272.82 243.666 271.476 243.754 270.15H469.103Z" fill="#407BFF"/>
<path d="M466.451 289.722C466.239 291.048 466.045 292.374 465.833 293.718H243.683C243.683 292.374 243.683 291.048 243.683 289.722H466.451Z" fill="#407BFF"/>
<path d="M463.216 309.276L462.42 313.289H244.426C244.426 311.946 244.267 310.602 244.214 309.276H463.216Z" fill="#407BFF"/>
<path d="M459.026 328.848L458.071 332.844H245.911C245.77 331.518 245.646 330.174 245.522 328.848H459.026Z" fill="#407BFF"/>
<path d="M453.969 348.402C453.545 349.746 453.085 351.089 452.573 352.415H248.669C248.333 351.089 248.068 349.746 247.838 348.402H453.969Z" fill="#407BFF"/>
<path d="M445.076 367.956C444.298 369.3 443.45 370.661 442.601 371.969H255.883C255.211 370.661 254.574 369.3 253.973 367.956H445.076Z" fill="#407BFF"/>
<path d="M430.95 387.528C429.801 388.872 428.652 390.215 427.414 391.524H268.294C267.269 390.215 266.296 388.872 265.341 387.528H430.95Z" fill="#407BFF"/>
<path d="M411.82 407.082C410.317 408.443 408.815 409.787 407.294 411.095H285.673C284.347 409.787 283.021 408.443 281.713 407.082H411.82Z" fill="#407BFF"/>
<path d="M387.669 426.636C385.76 428.015 383.904 429.359 382.047 430.649H308.162C306.501 429.359 304.821 428.015 303.106 426.636H387.669Z" fill="#407BFF"/>
<path d="M357.967 446.208C355.333 447.746 352.999 449.09 351.001 450.203H336.45C334.682 449.09 332.455 447.746 330.05 446.208H357.967Z" fill="#407BFF"/>
</g>
</g>
</svg>
